<?xml version="1.0" encoding="utf-8"?>
<svg version="1.1" xmlns:xlink="http://www.w3.org/1999/xlink" width="28px" height="40px" xmlns="http://www.w3.org/2000/svg">
  <g transform="matrix(1 0 0 1 -32 -43 )">
    <path d="M 19.099609375 9.32291666666666  C 19.783203125 9.98263888888889  20.125 10.7638888888889  20.125 11.6666666666667  C 20.125 11.8923611111111  20.0384114583333 12.0876736111111  19.865234375 12.2526041666667  C 19.6920572916667 12.4175347222222  19.4869791666667 12.5  19.25 12.5  C 19.0130208333333 12.5  18.8079427083333 12.4175347222222  18.634765625 12.2526041666667  C 18.4615885416667 12.0876736111111  18.375 11.8923611111111  18.375 11.6666666666667  C 18.375 10.8680555555555  17.8828125 10.2517361111111  16.8984375 9.81770833333334  C 15.9140625 9.38368055555554  14.9479166666667 9.16666666666666  14 9.16666666666666  C 13.7630208333333 9.16666666666666  13.5579427083333 9.08420138888889  13.384765625 8.91927083333334  C 13.2115885416667 8.75434027777777  13.125 8.55902777777777  13.125 8.33333333333334  C 13.125 8.10763888888889  13.2115885416667 7.91232638888889  13.384765625 7.74739583333334  C 13.5579427083333 7.58246527777777  13.7630208333333 7.5  14 7.5  C 14.9114583333333 7.5  15.818359375 7.63888888888889  16.720703125 7.91666666666666  C 17.623046875 8.19444444444446  18.416015625 8.66319444444446  19.099609375 9.32291666666666  Z M 22.640625 16.3541666666667  C 23.8802083333333 14.9826388888889  24.5 13.4201388888889  24.5 11.6666666666667  C 24.5 10.4166666666667  24.185546875 9.25347222222223  23.556640625 8.17708333333334  C 22.927734375 7.10069444444443  22.107421875 6.21961805555554  21.095703125 5.53385416666666  C 20.083984375 4.84809027777777  18.962890625 4.30989583333334  17.732421875 3.91927083333334  C 16.501953125 3.52864583333334  15.2578125 3.33333333333334  14 3.33333333333334  C 12.7421875 3.33333333333334  11.498046875 3.52864583333334  10.267578125 3.91927083333334  C 9.037109375 4.30989583333334  7.916015625 4.84809027777777  6.904296875 5.53385416666666  C 5.892578125 6.21961805555554  5.072265625 7.10069444444443  4.443359375 8.17708333333334  C 3.814453125 9.25347222222223  3.5 10.4166666666667  3.5 11.6666666666667  C 3.5 13.4201388888889  4.11979166666666 14.9826388888889  5.359375 16.3541666666667  C 5.54166666666666 16.5451388888889  5.81966145833334 16.8315972222222  6.193359375 17.2135416666667  C 6.56705729166666 17.5954861111111  6.84505208333334 17.8819444444445  7.02734375 18.0729166666667  C 9.36067708333334 20.7291666666667  10.6458333333333 23.3159722222222  10.8828125 25.8333333333333  L 17.1171875 25.8333333333333  C 17.3541666666667 23.3159722222222  18.6393229166667 20.7291666666667  20.97265625 18.0729166666667  C 21.1549479166667 17.8819444444445  21.4329427083333 17.5954861111111  21.806640625 17.2135416666667  C 22.1803385416667 16.8315972222222  22.4583333333333 16.5451388888889  22.640625 16.3541666666667  Z M 26.783203125 6.86197916666666  C 27.5944010416667 8.34635416666666  28 9.94791666666666  28 11.6666666666667  C 28 14.3576388888889  27.0611979166667 16.6840277777778  25.18359375 18.6458333333333  C 24.36328125 19.4965277777778  23.6842447916667 20.2517361111111  23.146484375 20.9114583333333  C 22.6087239583333 21.5711805555555  22.06640625 22.4001736111111  21.51953125 23.3984375  C 20.97265625 24.3967013888889  20.6627604166667 25.3298611111111  20.58984375 26.1979166666667  C 21.4466145833333 26.6840277777778  21.875 27.3958333333333  21.875 28.3333333333333  C 21.875 28.9756944444444  21.6471354166667 29.53125  21.19140625 30  C 21.6471354166667 30.46875  21.875 31.0243055555555  21.875 31.6666666666667  C 21.875 32.5694444444445  21.46484375 33.2725694444445  20.64453125 33.7760416666667  C 20.8815104166667 34.1753472222222  21 34.5833333333333  21 35  C 21 35.7986111111111  20.712890625 36.4149305555555  20.138671875 36.8489583333333  C 19.564453125 37.2829861111111  18.8580729166667 37.5  18.01953125 37.5  C 17.6549479166667 38.2638888888889  17.1080729166667 38.8715277777778  16.37890625 39.3229166666667  C 15.6497395833333 39.7743055555555  14.8567708333333 40  14 40  C 13.1432291666667 40  12.3502604166667 39.7743055555555  11.62109375 39.3229166666667  C 10.8919270833333 38.8715277777778  10.3450520833333 38.2638888888889  9.98046875 37.5  C 9.14192708333334 37.5  8.435546875 37.2829861111111  7.861328125 36.8489583333333  C 7.287109375 36.4149305555555  7 35.7986111111111  7 35  C 7 34.5833333333333  7.11848958333334 34.1753472222222  7.35546875 33.7760416666667  C 6.53515625 33.2725694444445  6.125 32.5694444444445  6.125 31.6666666666667  C 6.125 31.0243055555555  6.35286458333334 30.46875  6.80859375 30  C 6.35286458333334 29.53125  6.125 28.9756944444444  6.125 28.3333333333333  C 6.125 27.3958333333333  6.55338541666666 26.6840277777778  7.41015625 26.1979166666667  C 7.33723958333334 25.3298611111111  7.02734375 24.3967013888889  6.48046875 23.3984375  C 5.93359375 22.4001736111111  5.39127604166666 21.5711805555555  4.853515625 20.9114583333333  C 4.31575520833334 20.2517361111111  3.63671875 19.4965277777778  2.81640625 18.6458333333333  C 0.938802083333339 16.6840277777778  0 14.3576388888889  0 11.6666666666667  C 0 9.94791666666666  0.405598958333339 8.34635416666666  1.216796875 6.86197916666666  C 2.02799479166666 5.37760416666666  3.09440104166666 4.14496527777777  4.416015625 3.1640625  C 5.73763020833334 2.18315972222223  7.232421875 1.41059027777777  8.900390625 0.846354166666657  C 10.568359375 0.282118055555543  12.2682291666667 0  14 0  C 15.7317708333333 0  17.431640625 0.282118055555543  19.099609375 0.846354166666657  C 20.767578125 1.41059027777777  22.2623697916667 2.18315972222223  23.583984375 3.1640625  C 24.9055989583333 4.14496527777777  25.9720052083333 5.37760416666666  26.783203125 6.86197916666666  Z " fill-rule="nonzero" fill="#cccccc" stroke="none" transform="matrix(1 0 0 1 32 43 )" />
  </g>
</svg>