<?xml version="1.0" encoding="utf-8"?>
<svg version="1.1" xmlns:xlink="http://www.w3.org/1999/xlink" width="16px" height="13px" xmlns="http://www.w3.org/2000/svg">
  <g transform="matrix(1 0 0 1 -881 -20 )">
    <path d="M 15.6228956228956 9.71717171717171  C 15.8742985409652 9.92143658810325  16 10.1694725028058  16 10.4612794612795  C 16 10.7530864197531  15.8742985409652 11.0011223344557  15.6228956228956 11.2053872053872  L 13.7912457912458 12.6936026936027  C 13.5398428731762 12.8978675645342  13.2345679012345 13  12.8754208754209 13  C 12.5162738496072 13  12.2109988776656 12.8978675645342  11.959595959596 12.6936026936027  L 8 9.47643097643098  L 4.04040404040404 12.6936026936027  C 3.78900112233441 12.8978675645342  3.48372615039284 13  3.1245791245791 13  C 2.76543209876547 13  2.46015712682379 12.8978675645342  2.20875420875416 12.6936026936027  L 0.377104377104388 11.2053872053872  C 0.125701459034758 11.0011223344557  0 10.7530864197531  0 10.4612794612795  C 0 10.1694725028058  0.125701459034758 9.92143658810325  0.377104377104388 9.71717171717171  L 4.33670033670035 6.5  L 0.377104377104388 3.28282828282828  C 0.125701459034758 3.07856341189675  0 2.83052749719416  0 2.53872053872054  C 0 2.24691358024691  0.125701459034758 1.99887766554433  0.377104377104388 1.7946127946128  L 2.20875420875416 0.306397306397308  C 2.46015712682379 0.102132435465769  2.76543209876547 0  3.1245791245791 0  C 3.48372615039284 0  3.78900112233441 0.102132435465769  4.04040404040404 0.306397306397308  L 8 3.52356902356902  L 11.959595959596 0.306397306397308  C 12.2109988776656 0.102132435465769  12.5162738496072 0  12.8754208754209 0  C 13.2345679012345 0  13.5398428731762 0.102132435465769  13.7912457912458 0.306397306397308  L 15.6228956228956 1.7946127946128  C 15.8742985409652 1.99887766554433  16 2.24691358024691  16 2.53872053872054  C 16 2.83052749719416  15.8742985409652 3.07856341189675  15.6228956228956 3.28282828282828  L 11.6632996632997 6.5  L 15.6228956228956 9.71717171717171  Z " fill-rule="nonzero" fill="#000000" stroke="none" transform="matrix(1 0 0 1 881 20 )" />
  </g>
</svg>