<?xml version="1.0" encoding="utf-8"?>
<svg version="1.1" xmlns:xlink="http://www.w3.org/1999/xlink" width="12px" height="12px" viewBox="57 257  12 12" xmlns="http://www.w3.org/2000/svg">
  <path d="M 63 257  C 66.36 257  69 259.64  69 263  C 69 266.36  66.36 269  63 269  C 59.64 269  57 266.36  57 263  C 57 259.64  59.64 257  63 257  Z " fill-rule="nonzero" fill="#ffffff" stroke="none" />
  <path d="M 63 257.5  C 66.08 257.5  68.5 259.92  68.5 263  C 68.5 266.08  66.08 268.5  63 268.5  C 59.92 268.5  57.5 266.08  57.5 263  C 57.5 259.92  59.92 257.5  63 257.5  Z " stroke-width="1" stroke="#797979" fill="none" />
  <path d="M 63 266  C 61.32 266  60 264.68  60 263  C 60 261.32  61.32 260  63 260  C 64.68 260  66 261.32  66 263  C 66 264.68  64.68 266  63 266  " fill-rule="nonzero" fill="#797979" stroke="none" />
</svg>