<?xml version="1.0" encoding="utf-8"?>
<svg version="1.1" xmlns:xlink="http://www.w3.org/1999/xlink" width="12px" height="12px" viewBox="57 297  12 12" xmlns="http://www.w3.org/2000/svg">
  <path d="M 63 297  C 66.36 297  69 299.64  69 303  C 69 306.36  66.36 309  63 309  C 59.64 309  57 306.36  57 303  C 57 299.64  59.64 297  63 297  Z " fill-rule="nonzero" fill="#ffffff" stroke="none" />
  <path d="M 63 297.5  C 66.08 297.5  68.5 299.92  68.5 303  C 68.5 306.08  66.08 308.5  63 308.5  C 59.92 308.5  57.5 306.08  57.5 303  C 57.5 299.92  59.92 297.5  63 297.5  Z " stroke-width="1" stroke="#797979" fill="none" />
  <path d="M 63 306  C 61.32 306  60 304.68  60 303  C 60 301.32  61.32 300  63 300  C 64.68 300  66 301.32  66 303  C 66 304.68  64.68 306  63 306  " fill-rule="nonzero" fill="#797979" stroke="none" />
</svg>