<?xml version="1.0" encoding="utf-8"?>
<svg version="1.1" xmlns:xlink="http://www.w3.org/1999/xlink" width="12px" height="12px" viewBox="57 179  12 12" xmlns="http://www.w3.org/2000/svg">
  <path d="M 63 179  C 66.36 179  69 181.64  69 185  C 69 188.36  66.36 191  63 191  C 59.64 191  57 188.36  57 185  C 57 181.64  59.64 179  63 179  Z " fill-rule="nonzero" fill="#ffffff" stroke="none" />
  <path d="M 63 179.5  C 66.08 179.5  68.5 181.92  68.5 185  C 68.5 188.08  66.08 190.5  63 190.5  C 59.92 190.5  57.5 188.08  57.5 185  C 57.5 181.92  59.92 179.5  63 179.5  Z " stroke-width="1" stroke="#797979" fill="none" />
  <path d="M 63 188  C 61.32 188  60 186.68  60 185  C 60 183.32  61.32 182  63 182  C 64.68 182  66 183.32  66 185  C 66 186.68  64.68 188  63 188  " fill-rule="nonzero" fill="#797979" stroke="none" />
</svg>