<?xml version="1.0" encoding="utf-8"?>
<svg version="1.1" xmlns:xlink="http://www.w3.org/1999/xlink" width="25px" height="25px" xmlns="http://www.w3.org/2000/svg">
  <g transform="matrix(1 0 0 1 -807 -145 )">
    <path d="M 819.5 145  C 826.5 145  832 150.5  832 157.5  C 832 164.5  826.5 170  819.5 170  C 812.5 170  807 164.5  807 157.5  C 807 150.5  812.5 145  819.5 145  Z " fill-rule="nonzero" fill="#39a6e5" stroke="none" />
    <path d="M 819.5 145.5  C 826.22 145.5  831.5 150.78  831.5 157.5  C 831.5 164.22  826.22 169.5  819.5 169.5  C 812.78 169.5  807.5 164.22  807.5 157.5  C 807.5 150.78  812.78 145.5  819.5 145.5  Z " stroke-width="1" stroke="#cccccc" fill="none" />
  </g>
</svg>