<?xml version="1.0" encoding="utf-8"?>
<svg version="1.1" xmlns:xlink="http://www.w3.org/1999/xlink" width="12px" height="12px" viewBox="241 365  12 12" xmlns="http://www.w3.org/2000/svg">
  <path d="M 247 365  C 250.36 365  253 367.64  253 371  C 253 374.36  250.36 377  247 377  C 243.64 377  241 374.36  241 371  C 241 367.64  243.64 365  247 365  Z " fill-rule="nonzero" fill="#ffffff" stroke="none" />
  <path d="M 247 365.5  C 250.08 365.5  252.5 367.92  252.5 371  C 252.5 374.08  250.08 376.5  247 376.5  C 243.92 376.5  241.5 374.08  241.5 371  C 241.5 367.92  243.92 365.5  247 365.5  Z " stroke-width="1" stroke="#797979" fill="none" />
  <path d="M 247 374  C 245.32 374  244 372.68  244 371  C 244 369.32  245.32 368  247 368  C 248.68 368  250 369.32  250 371  C 250 372.68  248.68 374  247 374  " fill-rule="nonzero" fill="#797979" stroke="none" />
</svg>