<?xml version="1.0" encoding="utf-8"?>
<svg version="1.1" xmlns:xlink="http://www.w3.org/1999/xlink" width="12px" height="12px" viewBox="741 332  12 12" xmlns="http://www.w3.org/2000/svg">
  <path d="M 747 332  C 750.36 332  753 334.64  753 338  C 753 341.36  750.36 344  747 344  C 743.64 344  741 341.36  741 338  C 741 334.64  743.64 332  747 332  Z " fill-rule="nonzero" fill="#ffffff" stroke="none" />
  <path d="M 747 332.5  C 750.08 332.5  752.5 334.92  752.5 338  C 752.5 341.08  750.08 343.5  747 343.5  C 743.92 343.5  741.5 341.08  741.5 338  C 741.5 334.92  743.92 332.5  747 332.5  Z " stroke-width="1" stroke="#797979" fill="none" />
  <path d="M 747 341  C 745.32 341  744 339.68  744 338  C 744 336.32  745.32 335  747 335  C 748.68 335  750 336.32  750 338  C 750 339.68  748.68 341  747 341  " fill-rule="nonzero" fill="#797979" stroke="none" />
</svg>