<?xml version="1.0" encoding="utf-8"?>
<svg version="1.1" xmlns:xlink="http://www.w3.org/1999/xlink" width="12px" height="12px" viewBox="777 368  12 12" xmlns="http://www.w3.org/2000/svg">
  <path d="M 783 368  C 786.36 368  789 370.64  789 374  C 789 377.36  786.36 380  783 380  C 779.64 380  777 377.36  777 374  C 777 370.64  779.64 368  783 368  Z " fill-rule="nonzero" fill="#ffffff" stroke="none" />
  <path d="M 783 368.5  C 786.08 368.5  788.5 370.92  788.5 374  C 788.5 377.08  786.08 379.5  783 379.5  C 779.92 379.5  777.5 377.08  777.5 374  C 777.5 370.92  779.92 368.5  783 368.5  Z " stroke-width="1" stroke="#797979" fill="none" />
  <path d="M 783 377  C 781.32 377  780 375.68  780 374  C 780 372.32  781.32 371  783 371  C 784.68 371  786 372.32  786 374  C 786 375.68  784.68 377  783 377  " fill-rule="nonzero" fill="#797979" stroke="none" />
</svg>