<?xml version="1.0" encoding="utf-8"?>
<svg version="1.1" xmlns:xlink="http://www.w3.org/1999/xlink" width="12px" height="12px" viewBox="345 368  12 12" xmlns="http://www.w3.org/2000/svg">
  <path d="M 351 368  C 354.36 368  357 370.64  357 374  C 357 377.36  354.36 380  351 380  C 347.64 380  345 377.36  345 374  C 345 370.64  347.64 368  351 368  Z " fill-rule="nonzero" fill="#ffffff" stroke="none" />
  <path d="M 351 368.5  C 354.08 368.5  356.5 370.92  356.5 374  C 356.5 377.08  354.08 379.5  351 379.5  C 347.92 379.5  345.5 377.08  345.5 374  C 345.5 370.92  347.92 368.5  351 368.5  Z " stroke-width="1" stroke="#797979" fill="none" />
  <path d="M 351 377  C 349.32 377  348 375.68  348 374  C 348 372.32  349.32 371  351 371  C 352.68 371  354 372.32  354 374  C 354 375.68  352.68 377  351 377  " fill-rule="nonzero" fill="#797979" stroke="none" />
</svg>