<?xml version="1.0" encoding="utf-8"?>
<svg version="1.1" xmlns:xlink="http://www.w3.org/1999/xlink" width="12px" height="12px" viewBox="741 334  12 12" xmlns="http://www.w3.org/2000/svg">
  <path d="M 747 334  C 750.36 334  753 336.64  753 340  C 753 343.36  750.36 346  747 346  C 743.64 346  741 343.36  741 340  C 741 336.64  743.64 334  747 334  Z " fill-rule="nonzero" fill="#ffffff" stroke="none" />
  <path d="M 747 334.5  C 750.08 334.5  752.5 336.92  752.5 340  C 752.5 343.08  750.08 345.5  747 345.5  C 743.92 345.5  741.5 343.08  741.5 340  C 741.5 336.92  743.92 334.5  747 334.5  Z " stroke-width="1" stroke="#797979" fill="none" />
  <path d="M 747 343  C 745.32 343  744 341.68  744 340  C 744 338.32  745.32 337  747 337  C 748.68 337  750 338.32  750 340  C 750 341.68  748.68 343  747 343  " fill-rule="nonzero" fill="#797979" stroke="none" />
</svg>