<?xml version="1.0" encoding="utf-8"?>
<svg version="1.1" xmlns:xlink="http://www.w3.org/1999/xlink" width="12px" height="12px" viewBox="399 315  12 12" xmlns="http://www.w3.org/2000/svg">
  <path d="M 405 315  C 408.36 315  411 317.64  411 321  C 411 324.36  408.36 327  405 327  C 401.64 327  399 324.36  399 321  C 399 317.64  401.64 315  405 315  Z " fill-rule="nonzero" fill="#ffffff" stroke="none" />
  <path d="M 405 315.5  C 408.08 315.5  410.5 317.92  410.5 321  C 410.5 324.08  408.08 326.5  405 326.5  C 401.92 326.5  399.5 324.08  399.5 321  C 399.5 317.92  401.92 315.5  405 315.5  Z " stroke-width="1" stroke="#797979" fill="none" />
  <path d="M 405 324  C 403.32 324  402 322.68  402 321  C 402 319.32  403.32 318  405 318  C 406.68 318  408 319.32  408 321  C 408 322.68  406.68 324  405 324  " fill-rule="nonzero" fill="#797979" stroke="none" />
</svg>