<?xml version="1.0" encoding="utf-8"?>
<svg version="1.1" xmlns:xlink="http://www.w3.org/1999/xlink" width="12px" height="12px" viewBox="294 315  12 12" xmlns="http://www.w3.org/2000/svg">
  <path d="M 300 315  C 303.36 315  306 317.64  306 321  C 306 324.36  303.36 327  300 327  C 296.64 327  294 324.36  294 321  C 294 317.64  296.64 315  300 315  Z " fill-rule="nonzero" fill="#ffffff" stroke="none" />
  <path d="M 300 315.5  C 303.08 315.5  305.5 317.92  305.5 321  C 305.5 324.08  303.08 326.5  300 326.5  C 296.92 326.5  294.5 324.08  294.5 321  C 294.5 317.92  296.92 315.5  300 315.5  Z " stroke-width="1" stroke="#797979" fill="none" />
  <path d="M 300 324  C 298.32 324  297 322.68  297 321  C 297 319.32  298.32 318  300 318  C 301.68 318  303 319.32  303 321  C 303 322.68  301.68 324  300 324  " fill-rule="nonzero" fill="#797979" stroke="none" />
</svg>