<?xml version="1.0" encoding="utf-8"?>
<svg version="1.1" xmlns:xlink="http://www.w3.org/1999/xlink" width="12px" height="12px" viewBox="680 315  12 12" xmlns="http://www.w3.org/2000/svg">
  <path d="M 686 315  C 689.36 315  692 317.64  692 321  C 692 324.36  689.36 327  686 327  C 682.64 327  680 324.36  680 321  C 680 317.64  682.64 315  686 315  Z " fill-rule="nonzero" fill="#ffffff" stroke="none" />
  <path d="M 686 315.5  C 689.08 315.5  691.5 317.92  691.5 321  C 691.5 324.08  689.08 326.5  686 326.5  C 682.92 326.5  680.5 324.08  680.5 321  C 680.5 317.92  682.92 315.5  686 315.5  Z " stroke-width="1" stroke="#797979" fill="none" />
  <path d="M 686 324  C 684.32 324  683 322.68  683 321  C 683 319.32  684.32 318  686 318  C 687.68 318  689 319.32  689 321  C 689 322.68  687.68 324  686 324  " fill-rule="nonzero" fill="#797979" stroke="none" />
</svg>