<?xml version="1.0" encoding="utf-8"?>
<svg version="1.1" xmlns:xlink="http://www.w3.org/1999/xlink" width="12px" height="12px" viewBox="578 315  12 12" xmlns="http://www.w3.org/2000/svg">
  <path d="M 584 315  C 587.36 315  590 317.64  590 321  C 590 324.36  587.36 327  584 327  C 580.64 327  578 324.36  578 321  C 578 317.64  580.64 315  584 315  Z " fill-rule="nonzero" fill="#ffffff" stroke="none" />
  <path d="M 584 315.5  C 587.08 315.5  589.5 317.92  589.5 321  C 589.5 324.08  587.08 326.5  584 326.5  C 580.92 326.5  578.5 324.08  578.5 321  C 578.5 317.92  580.92 315.5  584 315.5  Z " stroke-width="1" stroke="#797979" fill="none" />
  <path d="M 584 324  C 582.32 324  581 322.68  581 321  C 581 319.32  582.32 318  584 318  C 585.68 318  587 319.32  587 321  C 587 322.68  585.68 324  584 324  " fill-rule="nonzero" fill="#797979" stroke="none" />
</svg>