<?xml version="1.0" encoding="utf-8"?>
<svg version="1.1" xmlns:xlink="http://www.w3.org/1999/xlink" width="12px" height="12px" viewBox="485 175  12 12" xmlns="http://www.w3.org/2000/svg">
  <path d="M 491 175  C 494.36 175  497 177.64  497 181  C 497 184.36  494.36 187  491 187  C 487.64 187  485 184.36  485 181  C 485 177.64  487.64 175  491 175  Z " fill-rule="nonzero" fill="#ffffff" stroke="none" />
  <path d="M 491 175.5  C 494.08 175.5  496.5 177.92  496.5 181  C 496.5 184.08  494.08 186.5  491 186.5  C 487.92 186.5  485.5 184.08  485.5 181  C 485.5 177.92  487.92 175.5  491 175.5  Z " stroke-width="1" stroke="#797979" fill="none" />
  <path d="M 491 184  C 489.32 184  488 182.68  488 181  C 488 179.32  489.32 178  491 178  C 492.68 178  494 179.32  494 181  C 494 182.68  492.68 184  491 184  " fill-rule="nonzero" fill="#797979" stroke="none" />
</svg>