<?xml version="1.0" encoding="utf-8"?>
<svg version="1.1" xmlns:xlink="http://www.w3.org/1999/xlink" width="12px" height="12px" viewBox="283 175  12 12" xmlns="http://www.w3.org/2000/svg">
  <path d="M 289 175  C 292.36 175  295 177.64  295 181  C 295 184.36  292.36 187  289 187  C 285.64 187  283 184.36  283 181  C 283 177.64  285.64 175  289 175  Z " fill-rule="nonzero" fill="#ffffff" stroke="none" />
  <path d="M 289 175.5  C 292.08 175.5  294.5 177.92  294.5 181  C 294.5 184.08  292.08 186.5  289 186.5  C 285.92 186.5  283.5 184.08  283.5 181  C 283.5 177.92  285.92 175.5  289 175.5  Z " stroke-width="1" stroke="#797979" fill="none" />
  <path d="M 289 184  C 287.32 184  286 182.68  286 181  C 286 179.32  287.32 178  289 178  C 290.68 178  292 179.32  292 181  C 292 182.68  290.68 184  289 184  " fill-rule="nonzero" fill="#797979" stroke="none" />
</svg>