<?xml version="1.0" encoding="utf-8"?>
<svg version="1.1" xmlns:xlink="http://www.w3.org/1999/xlink" width="11px" height="11px" xmlns="http://www.w3.org/2000/svg">
  <g transform="matrix(1 0 0 1 -326 -39 )">
    <path d="M 331.5 39  C 334.58 39  337 41.42  337 44.5  C 337 47.58  334.58 50  331.5 50  C 328.42 50  326 47.58  326 44.5  C 326 41.42  328.42 39  331.5 39  Z " fill-rule="nonzero" fill="#000000" stroke="none" />
    <path d="M 331.5 39.5  C 334.3 39.5  336.5 41.7  336.5 44.5  C 336.5 47.3  334.3 49.5  331.5 49.5  C 328.7 49.5  326.5 47.3  326.5 44.5  C 326.5 41.7  328.7 39.5  331.5 39.5  Z " stroke-width="1" stroke="#000000" fill="none" />
  </g>
</svg>