<?xml version="1.0" encoding="utf-8"?>
<svg version="1.1" xmlns:xlink="http://www.w3.org/1999/xlink" width="12px" height="12px" viewBox="506 189  12 12" xmlns="http://www.w3.org/2000/svg">
  <path d="M 512 189  C 515.36 189  518 191.64  518 195  C 518 198.36  515.36 201  512 201  C 508.64 201  506 198.36  506 195  C 506 191.64  508.64 189  512 189  Z " fill-rule="nonzero" fill="#ffffff" stroke="none" />
  <path d="M 512 189.5  C 515.08 189.5  517.5 191.92  517.5 195  C 517.5 198.08  515.08 200.5  512 200.5  C 508.92 200.5  506.5 198.08  506.5 195  C 506.5 191.92  508.92 189.5  512 189.5  Z " stroke-width="1" stroke="#797979" fill="none" />
  <path d="M 512 198  C 510.32 198  509 196.68  509 195  C 509 193.32  510.32 192  512 192  C 513.68 192  515 193.32  515 195  C 515 196.68  513.68 198  512 198  " fill-rule="nonzero" fill="#797979" stroke="none" />
</svg>