<?xml version="1.0" encoding="utf-8"?>
<svg version="1.1" xmlns:xlink="http://www.w3.org/1999/xlink" width="12px" height="12px" viewBox="304 189  12 12" xmlns="http://www.w3.org/2000/svg">
  <path d="M 310 189  C 313.36 189  316 191.64  316 195  C 316 198.36  313.36 201  310 201  C 306.64 201  304 198.36  304 195  C 304 191.64  306.64 189  310 189  Z " fill-rule="nonzero" fill="#ffffff" stroke="none" />
  <path d="M 310 189.5  C 313.08 189.5  315.5 191.92  315.5 195  C 315.5 198.08  313.08 200.5  310 200.5  C 306.92 200.5  304.5 198.08  304.5 195  C 304.5 191.92  306.92 189.5  310 189.5  Z " stroke-width="1" stroke="#797979" fill="none" />
  <path d="M 310 198  C 308.32 198  307 196.68  307 195  C 307 193.32  308.32 192  310 192  C 311.68 192  313 193.32  313 195  C 313 196.68  311.68 198  310 198  " fill-rule="nonzero" fill="#797979" stroke="none" />
</svg>