<?xml version="1.0" encoding="utf-8"?>
<svg version="1.1" xmlns:xlink="http://www.w3.org/1999/xlink" width="12px" height="12px" viewBox="966 408  12 12" xmlns="http://www.w3.org/2000/svg">
  <path d="M 972 408  C 975.36 408  978 410.64  978 414  C 978 417.36  975.36 420  972 420  C 968.64 420  966 417.36  966 414  C 966 410.64  968.64 408  972 408  Z " fill-rule="nonzero" fill="#ffffff" stroke="none" />
  <path d="M 972 408.5  C 975.08 408.5  977.5 410.92  977.5 414  C 977.5 417.08  975.08 419.5  972 419.5  C 968.92 419.5  966.5 417.08  966.5 414  C 966.5 410.92  968.92 408.5  972 408.5  Z " stroke-width="1" stroke="#797979" fill="none" />
  <path d="M 972 417  C 970.32 417  969 415.68  969 414  C 969 412.32  970.32 411  972 411  C 973.68 411  975 412.32  975 414  C 975 415.68  973.68 417  972 417  " fill-rule="nonzero" fill="#797979" stroke="none" />
</svg>