<?xml version="1.0" encoding="utf-8"?>
<svg version="1.1" xmlns:xlink="http://www.w3.org/1999/xlink" width="12px" height="12px" viewBox="141 197  12 12" xmlns="http://www.w3.org/2000/svg">
  <path d="M 147 197  C 150.36 197  153 199.64  153 203  C 153 206.36  150.36 209  147 209  C 143.64 209  141 206.36  141 203  C 141 199.64  143.64 197  147 197  Z " fill-rule="nonzero" fill="#ffffff" stroke="none" />
  <path d="M 147 197.5  C 150.08 197.5  152.5 199.92  152.5 203  C 152.5 206.08  150.08 208.5  147 208.5  C 143.92 208.5  141.5 206.08  141.5 203  C 141.5 199.92  143.92 197.5  147 197.5  Z " stroke-width="1" stroke="#797979" fill="none" />
  <path d="M 147 206  C 145.32 206  144 204.68  144 203  C 144 201.32  145.32 200  147 200  C 148.68 200  150 201.32  150 203  C 150 204.68  148.68 206  147 206  " fill-rule="nonzero" fill="#797979" stroke="none" />
</svg>