<?xml version="1.0" encoding="utf-8"?>
<svg version="1.1" xmlns:xlink="http://www.w3.org/1999/xlink" width="12px" height="12px" viewBox="198 47  12 12" xmlns="http://www.w3.org/2000/svg">
  <path d="M 204 47  C 207.36 47  210 49.64  210 53  C 210 56.36  207.36 59  204 59  C 200.64 59  198 56.36  198 53  C 198 49.64  200.64 47  204 47  Z " fill-rule="nonzero" fill="#ffffff" stroke="none" />
  <path d="M 204 47.5  C 207.08 47.5  209.5 49.92  209.5 53  C 209.5 56.08  207.08 58.5  204 58.5  C 200.92 58.5  198.5 56.08  198.5 53  C 198.5 49.92  200.92 47.5  204 47.5  Z " stroke-width="1" stroke="#797979" fill="none" />
  <path d="M 204 56  C 202.32 56  201 54.68  201 53  C 201 51.32  202.32 50  204 50  C 205.68 50  207 51.32  207 53  C 207 54.68  205.68 56  204 56  " fill-rule="nonzero" fill="#797979" stroke="none" />
</svg>