<?xml version="1.0" encoding="utf-8"?>
<svg version="1.1" xmlns:xlink="http://www.w3.org/1999/xlink" width="12px" height="12px" viewBox="222 124  12 12" xmlns="http://www.w3.org/2000/svg">
  <path d="M 228 124  C 231.36 124  234 126.64  234 130  C 234 133.36  231.36 136  228 136  C 224.64 136  222 133.36  222 130  C 222 126.64  224.64 124  228 124  Z " fill-rule="nonzero" fill="#ffffff" stroke="none" />
  <path d="M 228 124.5  C 231.08 124.5  233.5 126.92  233.5 130  C 233.5 133.08  231.08 135.5  228 135.5  C 224.92 135.5  222.5 133.08  222.5 130  C 222.5 126.92  224.92 124.5  228 124.5  Z " stroke-width="1" stroke="#797979" fill="none" />
  <path d="M 228 133  C 226.32 133  225 131.68  225 130  C 225 128.32  226.32 127  228 127  C 229.68 127  231 128.32  231 130  C 231 131.68  229.68 133  228 133  " fill-rule="nonzero" fill="#797979" stroke="none" />
</svg>