<?xml version="1.0" encoding="utf-8"?>
<svg version="1.1" xmlns:xlink="http://www.w3.org/1999/xlink" width="12px" height="12px" viewBox="129 15  12 12" xmlns="http://www.w3.org/2000/svg">
  <path d="M 135 15  C 138.36 15  141 17.64  141 21  C 141 24.36  138.36 27  135 27  C 131.64 27  129 24.36  129 21  C 129 17.64  131.64 15  135 15  Z " fill-rule="nonzero" fill="#ffffff" stroke="none" />
  <path d="M 135 15.5  C 138.08 15.5  140.5 17.92  140.5 21  C 140.5 24.08  138.08 26.5  135 26.5  C 131.92 26.5  129.5 24.08  129.5 21  C 129.5 17.92  131.92 15.5  135 15.5  Z " stroke-width="1" stroke="#797979" fill="none" />
  <path d="M 135 24  C 133.32 24  132 22.68  132 21  C 132 19.32  133.32 18  135 18  C 136.68 18  138 19.32  138 21  C 138 22.68  136.68 24  135 24  " fill-rule="nonzero" fill="#797979" stroke="none" />
</svg>