<?xml version="1.0" encoding="utf-8"?>
<svg version="1.1" xmlns:xlink="http://www.w3.org/1999/xlink" width="12px" height="12px" viewBox="264 15  12 12" xmlns="http://www.w3.org/2000/svg">
  <path d="M 270 15  C 273.36 15  276 17.64  276 21  C 276 24.36  273.36 27  270 27  C 266.64 27  264 24.36  264 21  C 264 17.64  266.64 15  270 15  Z " fill-rule="nonzero" fill="#ffffff" stroke="none" />
  <path d="M 270 15.5  C 273.08 15.5  275.5 17.92  275.5 21  C 275.5 24.08  273.08 26.5  270 26.5  C 266.92 26.5  264.5 24.08  264.5 21  C 264.5 17.92  266.92 15.5  270 15.5  Z " stroke-width="1" stroke="#797979" fill="none" />
  <path d="M 270 24  C 268.32 24  267 22.68  267 21  C 267 19.32  268.32 18  270 18  C 271.68 18  273 19.32  273 21  C 273 22.68  271.68 24  270 24  " fill-rule="nonzero" fill="#797979" stroke="none" />
</svg>