<?xml version="1.0" encoding="utf-8"?>
<svg version="1.1" xmlns:xlink="http://www.w3.org/1999/xlink" width="12px" height="12px" viewBox="198 15  12 12" xmlns="http://www.w3.org/2000/svg">
  <path d="M 204 15  C 207.36 15  210 17.64  210 21  C 210 24.36  207.36 27  204 27  C 200.64 27  198 24.36  198 21  C 198 17.64  200.64 15  204 15  Z " fill-rule="nonzero" fill="#ffffff" stroke="none" />
  <path d="M 204 15.5  C 207.08 15.5  209.5 17.92  209.5 21  C 209.5 24.08  207.08 26.5  204 26.5  C 200.92 26.5  198.5 24.08  198.5 21  C 198.5 17.92  200.92 15.5  204 15.5  Z " stroke-width="1" stroke="#797979" fill="none" />
  <path d="M 204 24  C 202.32 24  201 22.68  201 21  C 201 19.32  202.32 18  204 18  C 205.68 18  207 19.32  207 21  C 207 22.68  205.68 24  204 24  " fill-rule="nonzero" fill="#797979" stroke="none" />
</svg>