<?xml version="1.0" encoding="utf-8"?>
<svg version="1.1" xmlns:xlink="http://www.w3.org/1999/xlink" width="26px" height="23px" xmlns="http://www.w3.org/2000/svg">
  <g>
    <path d="M 25.7243303571429 7.63312500000001  C 25.9081101190476 7.81520833333332  26 8.03083333333331  26 8.27999999999997  C 26 8.52916666666664  25.9081101190476 8.74479166666669  25.7243303571429 8.926875  L 18.2957589285714 16.286875  C 18.1119791666666 16.4689583333333  17.8943452380952 16.56  17.6428571428571 16.56  C 17.391369047619 16.56  17.1737351190476 16.4689583333333  16.9899553571429 16.286875  C 16.8061755952381 16.1047916666666  16.7142857142857 15.8891666666667  16.7142857142857 15.64  L 16.7142857142857 11.96  L 13.4642857142857 11.96  C 12.516369047619 11.96  11.6675967261905 11.98875  10.91796875 12.04625  C 10.1683407738095 12.10375  9.42354910714289 12.2067708333333  8.68359375 12.3553125  C 7.94363839285711 12.5038541666667  7.30040922619048 12.7075  6.75390625 12.96625  C 6.20740327380952 13.225  5.69717261904759 13.5580208333333  5.22321428571433 13.9653125  C 4.74925595238096 14.3726041666667  4.36235119047615 14.8565625  4.0625 15.4171875  C 3.76264880952385 15.9778125  3.52808779761904 16.6414583333333  3.35881696428567 17.408125  C 3.18954613095241 18.1747916666667  3.10491071428567 19.0420833333333  3.10491071428567 20.01  C 3.10491071428567 20.5370833333333  3.12909226190482 21.1264583333333  3.17745535714289 21.778125  C 3.17745535714289 21.835625  3.18954613095241 21.9482291666667  3.21372767857144 22.1159375  C 3.23790922619048 22.2836458333333  3.25 22.410625  3.25 22.496875  C 3.25 22.640625  3.20889136904759 22.7604166666667  3.12667410714289 22.85625  C 3.04445684523807 22.9520833333333  2.93080357142856 23  2.78571428571433 23  C 2.63095238095241 23  2.49553571428567 22.9185416666667  2.37946428571433 22.755625  C 2.31175595238096 22.669375  2.24888392857144 22.5639583333333  2.19084821428567 22.439375  C 2.1328125 22.3147916666667  2.06752232142856 22.1710416666667  1.99497767857144 22.008125  C 1.92243303571433 21.8452083333333  1.87165178571433 21.7302083333333  1.84263392857144 21.663125  C 0.614211309523853 18.931875  0 16.7708333333333  0 15.18  C 0 13.2729166666667  0.256324404761926 11.6772916666667  0.768973214285666 10.393125  C 2.3359375 6.53104166666668  6.56770833333337 4.60000000000002  13.4642857142857 4.60000000000002  L 16.7142857142857 4.60000000000002  L 16.7142857142857 0.920000000000016  C 16.7142857142857 0.670833333333348  16.8061755952381 0.455208333333303  16.9899553571429 0.273124999999993  C 17.1737351190476 0.0910416666666833  17.391369047619 0  17.6428571428571 0  C 17.8943452380952 0  18.1119791666666 0.0910416666666833  18.2957589285714 0.273124999999993  L 25.7243303571429 7.63312500000001  Z " fill-rule="nonzero" fill="#cccccc" stroke="none" fill-opacity="0.556862745098039" />
  </g>
</svg>