<?xml version="1.0" encoding="utf-8"?>
<svg version="1.1" xmlns:xlink="http://www.w3.org/1999/xlink" width="10px" height="10px" xmlns="http://www.w3.org/2000/svg">
  <g transform="matrix(1 0 0 1 -37 -517 )">
    <path d="M 42 517  C 44.8 517  47 519.2  47 522  C 47 524.8  44.8 527  42 527  C 39.2 527  37 524.8  37 522  C 37 519.2  39.2 517  42 517  Z " fill-rule="nonzero" fill="#4c90d7" stroke="none" />
    <path d="M 42 517.5  C 44.52 517.5  46.5 519.48  46.5 522  C 46.5 524.52  44.52 526.5  42 526.5  C 39.48 526.5  37.5 524.52  37.5 522  C 37.5 519.48  39.48 517.5  42 517.5  Z " stroke-width="1" stroke="#cccccc" fill="none" />
  </g>
</svg>